<mxfile host="app.diagrams.net" modified="2024-06-09T14:33:41.550Z" agent="Mozilla/5.0 (Windows NT 10.0; Win64; x64) AppleWebKit/537.36 (KHTML, like Gecko) Chrome/125.0.0.0 Safari/537.36" etag="DkbXcW9fjMdHdBkp3eVj" version="24.4.13" type="device">
  <diagram id="Rz91PEyFr1P4cPhmsqRz" name="Pagina-1">
    <mxGraphModel dx="2378" dy="1559" grid="1" gridSize="10" guides="1" tooltips="1" connect="1" arrows="1" fold="1" page="1" pageScale="1" pageWidth="827" pageHeight="1169" background="none" math="0" shadow="0">
      <root>
        <mxCell id="0" />
        <mxCell id="1" parent="0" />
        <mxCell id="Bmd9y-NQcxC6Sm9OuTp9-1" value="Payment&lt;div&gt;Method&lt;/div&gt;" style="rhombus;whiteSpace=wrap;html=1;" parent="1" vertex="1">
          <mxGeometry x="-695" y="500" width="150" height="80" as="geometry" />
        </mxCell>
        <mxCell id="Bmd9y-NQcxC6Sm9OuTp9-2" value="User" style="rounded=0;whiteSpace=wrap;html=1;" parent="1" vertex="1">
          <mxGeometry x="-680" y="340" width="120" height="60" as="geometry" />
        </mxCell>
        <mxCell id="Bmd9y-NQcxC6Sm9OuTp9-3" value="" style="endArrow=none;html=1;rounded=0;exitX=0.5;exitY=1;exitDx=0;exitDy=0;entryX=0.5;entryY=0;entryDx=0;entryDy=0;" parent="1" source="Bmd9y-NQcxC6Sm9OuTp9-2" target="Bmd9y-NQcxC6Sm9OuTp9-1" edge="1">
          <mxGeometry width="50" height="50" relative="1" as="geometry">
            <mxPoint x="-360" y="290" as="sourcePoint" />
            <mxPoint x="-310" y="240" as="targetPoint" />
          </mxGeometry>
        </mxCell>
        <mxCell id="Bmd9y-NQcxC6Sm9OuTp9-4" value="CreditCard" style="rounded=0;whiteSpace=wrap;html=1;" parent="1" vertex="1">
          <mxGeometry x="-460" y="510" width="120" height="60" as="geometry" />
        </mxCell>
        <mxCell id="Bmd9y-NQcxC6Sm9OuTp9-5" value="" style="endArrow=none;html=1;rounded=0;exitX=1;exitY=0.5;exitDx=0;exitDy=0;entryX=0;entryY=0.5;entryDx=0;entryDy=0;" parent="1" source="Bmd9y-NQcxC6Sm9OuTp9-1" target="Bmd9y-NQcxC6Sm9OuTp9-4" edge="1">
          <mxGeometry width="50" height="50" relative="1" as="geometry">
            <mxPoint x="-360" y="290" as="sourcePoint" />
            <mxPoint x="-310" y="240" as="targetPoint" />
          </mxGeometry>
        </mxCell>
        <mxCell id="Bmd9y-NQcxC6Sm9OuTp9-6" value="Property" style="rhombus;whiteSpace=wrap;html=1;" parent="1" vertex="1">
          <mxGeometry x="-685" y="190" width="130" height="80" as="geometry" />
        </mxCell>
        <mxCell id="Bmd9y-NQcxC6Sm9OuTp9-7" value="Structure" style="rounded=0;whiteSpace=wrap;html=1;" parent="1" vertex="1">
          <mxGeometry x="-680" y="70" width="120" height="60" as="geometry" />
        </mxCell>
        <mxCell id="Bmd9y-NQcxC6Sm9OuTp9-8" value="" style="endArrow=none;html=1;rounded=0;exitX=0.5;exitY=0;exitDx=0;exitDy=0;entryX=0.5;entryY=1;entryDx=0;entryDy=0;" parent="1" source="Bmd9y-NQcxC6Sm9OuTp9-2" target="Bmd9y-NQcxC6Sm9OuTp9-6" edge="1">
          <mxGeometry width="50" height="50" relative="1" as="geometry">
            <mxPoint x="-360" y="290" as="sourcePoint" />
            <mxPoint x="-310" y="240" as="targetPoint" />
          </mxGeometry>
        </mxCell>
        <mxCell id="Bmd9y-NQcxC6Sm9OuTp9-9" value="" style="endArrow=none;html=1;rounded=0;exitX=0.5;exitY=0;exitDx=0;exitDy=0;entryX=0.5;entryY=1;entryDx=0;entryDy=0;" parent="1" source="Bmd9y-NQcxC6Sm9OuTp9-6" target="Bmd9y-NQcxC6Sm9OuTp9-7" edge="1">
          <mxGeometry width="50" height="50" relative="1" as="geometry">
            <mxPoint x="-360" y="290" as="sourcePoint" />
            <mxPoint x="-310" y="240" as="targetPoint" />
          </mxGeometry>
        </mxCell>
        <mxCell id="Bmd9y-NQcxC6Sm9OuTp9-10" value="Relation" style="rhombus;whiteSpace=wrap;html=1;" parent="1" vertex="1">
          <mxGeometry x="-685" y="-60" width="130" height="80" as="geometry" />
        </mxCell>
        <mxCell id="Bmd9y-NQcxC6Sm9OuTp9-11" value="Room" style="rounded=0;whiteSpace=wrap;html=1;" parent="1" vertex="1">
          <mxGeometry x="-413" y="-50" width="120" height="60" as="geometry" />
        </mxCell>
        <mxCell id="Bmd9y-NQcxC6Sm9OuTp9-12" value="" style="endArrow=none;html=1;rounded=0;exitX=0.5;exitY=0;exitDx=0;exitDy=0;entryX=0.5;entryY=1;entryDx=0;entryDy=0;" parent="1" source="Bmd9y-NQcxC6Sm9OuTp9-7" target="Bmd9y-NQcxC6Sm9OuTp9-10" edge="1">
          <mxGeometry width="50" height="50" relative="1" as="geometry">
            <mxPoint x="-380" y="210" as="sourcePoint" />
            <mxPoint x="-330" y="160" as="targetPoint" />
          </mxGeometry>
        </mxCell>
        <mxCell id="Bmd9y-NQcxC6Sm9OuTp9-13" value="" style="endArrow=none;html=1;rounded=0;exitX=1;exitY=0.5;exitDx=0;exitDy=0;" parent="1" source="Bmd9y-NQcxC6Sm9OuTp9-10" target="Bmd9y-NQcxC6Sm9OuTp9-11" edge="1">
          <mxGeometry width="50" height="50" relative="1" as="geometry">
            <mxPoint x="-380" y="210" as="sourcePoint" />
            <mxPoint x="-330" y="160" as="targetPoint" />
          </mxGeometry>
        </mxCell>
        <mxCell id="Bmd9y-NQcxC6Sm9OuTp9-14" value="Review" style="rhombus;whiteSpace=wrap;html=1;" parent="1" vertex="1">
          <mxGeometry x="-880" y="190" width="120" height="80" as="geometry" />
        </mxCell>
        <mxCell id="Bmd9y-NQcxC6Sm9OuTp9-15" value="" style="endArrow=none;html=1;rounded=0;exitX=0.5;exitY=0;exitDx=0;exitDy=0;entryX=0;entryY=0.5;entryDx=0;entryDy=0;" parent="1" source="Bmd9y-NQcxC6Sm9OuTp9-14" target="Bmd9y-NQcxC6Sm9OuTp9-7" edge="1">
          <mxGeometry width="50" height="50" relative="1" as="geometry">
            <mxPoint x="-380" y="210" as="sourcePoint" />
            <mxPoint x="-330" y="160" as="targetPoint" />
            <Array as="points">
              <mxPoint x="-820" y="100" />
            </Array>
          </mxGeometry>
        </mxCell>
        <mxCell id="Bmd9y-NQcxC6Sm9OuTp9-16" value="" style="endArrow=none;html=1;rounded=0;exitX=0.5;exitY=1;exitDx=0;exitDy=0;entryX=0;entryY=0.5;entryDx=0;entryDy=0;" parent="1" source="Bmd9y-NQcxC6Sm9OuTp9-14" target="Bmd9y-NQcxC6Sm9OuTp9-2" edge="1">
          <mxGeometry width="50" height="50" relative="1" as="geometry">
            <mxPoint x="-380" y="210" as="sourcePoint" />
            <mxPoint x="-330" y="160" as="targetPoint" />
            <Array as="points">
              <mxPoint x="-820" y="370" />
            </Array>
          </mxGeometry>
        </mxCell>
        <mxCell id="Bmd9y-NQcxC6Sm9OuTp9-20" value="Booking" style="rhombus;whiteSpace=wrap;html=1;" parent="1" vertex="1">
          <mxGeometry x="-428" y="60" width="150" height="80" as="geometry" />
        </mxCell>
        <mxCell id="Bmd9y-NQcxC6Sm9OuTp9-21" value="" style="endArrow=none;html=1;rounded=0;entryX=0.5;entryY=1;entryDx=0;entryDy=0;exitX=0.5;exitY=0;exitDx=0;exitDy=0;" parent="1" source="Bmd9y-NQcxC6Sm9OuTp9-20" target="Bmd9y-NQcxC6Sm9OuTp9-11" edge="1">
          <mxGeometry width="50" height="50" relative="1" as="geometry">
            <mxPoint x="-350" y="70" as="sourcePoint" />
            <mxPoint x="-290" y="200" as="targetPoint" />
          </mxGeometry>
        </mxCell>
        <mxCell id="Bmd9y-NQcxC6Sm9OuTp9-22" value="" style="endArrow=none;html=1;rounded=0;exitX=1;exitY=0.5;exitDx=0;exitDy=0;entryX=0;entryY=0.5;entryDx=0;entryDy=0;" parent="1" source="Bmd9y-NQcxC6Sm9OuTp9-7" target="Bmd9y-NQcxC6Sm9OuTp9-20" edge="1">
          <mxGeometry width="50" height="50" relative="1" as="geometry">
            <mxPoint x="-340" y="250" as="sourcePoint" />
            <mxPoint x="-290" y="200" as="targetPoint" />
          </mxGeometry>
        </mxCell>
        <mxCell id="Bmd9y-NQcxC6Sm9OuTp9-23" value="" style="endArrow=none;html=1;rounded=0;exitX=1;exitY=0.5;exitDx=0;exitDy=0;entryX=0.5;entryY=1;entryDx=0;entryDy=0;" parent="1" source="Bmd9y-NQcxC6Sm9OuTp9-2" target="Bmd9y-NQcxC6Sm9OuTp9-20" edge="1">
          <mxGeometry width="50" height="50" relative="1" as="geometry">
            <mxPoint x="-340" y="250" as="sourcePoint" />
            <mxPoint x="-290" y="200" as="targetPoint" />
            <Array as="points">
              <mxPoint x="-353" y="370" />
            </Array>
          </mxGeometry>
        </mxCell>
        <mxCell id="ElIWbwAEzOnZSnegK48y-5" value="" style="endArrow=none;html=1;rounded=0;entryX=0;entryY=0.75;entryDx=0;entryDy=0;" edge="1" parent="1" target="Bmd9y-NQcxC6Sm9OuTp9-2">
          <mxGeometry width="50" height="50" relative="1" as="geometry">
            <mxPoint x="-800" y="440" as="sourcePoint" />
            <mxPoint x="-670" y="250" as="targetPoint" />
            <Array as="points">
              <mxPoint x="-770" y="440" />
              <mxPoint x="-770" y="385" />
            </Array>
          </mxGeometry>
        </mxCell>
        <mxCell id="ElIWbwAEzOnZSnegK48y-6" value="id" style="text;html=1;align=center;verticalAlign=middle;resizable=0;points=[];autosize=1;strokeColor=none;fillColor=none;" vertex="1" parent="1">
          <mxGeometry x="-840" y="425" width="30" height="30" as="geometry" />
        </mxCell>
        <mxCell id="ElIWbwAEzOnZSnegK48y-9" value="" style="shape=waypoint;sketch=0;size=6;pointerEvents=1;points=[];fillColor=none;resizable=0;rotatable=0;perimeter=centerPerimeter;snapToPoint=1;" vertex="1" parent="1">
          <mxGeometry x="-810" y="430" width="20" height="20" as="geometry" />
        </mxCell>
        <mxCell id="ElIWbwAEzOnZSnegK48y-12" value="" style="ellipse;whiteSpace=wrap;html=1;aspect=fixed;" vertex="1" parent="1">
          <mxGeometry x="-805" y="455" width="10" height="10" as="geometry" />
        </mxCell>
        <mxCell id="ElIWbwAEzOnZSnegK48y-13" value="" style="endArrow=none;html=1;rounded=0;exitX=1;exitY=0.5;exitDx=0;exitDy=0;" edge="1" parent="1" source="ElIWbwAEzOnZSnegK48y-12">
          <mxGeometry width="50" height="50" relative="1" as="geometry">
            <mxPoint x="-760" y="350" as="sourcePoint" />
            <mxPoint x="-770" y="440" as="targetPoint" />
            <Array as="points">
              <mxPoint x="-770" y="460" />
            </Array>
          </mxGeometry>
        </mxCell>
        <mxCell id="ElIWbwAEzOnZSnegK48y-15" value="name" style="text;html=1;align=center;verticalAlign=middle;resizable=0;points=[];autosize=1;strokeColor=none;fillColor=none;" vertex="1" parent="1">
          <mxGeometry x="-860" y="450" width="50" height="30" as="geometry" />
        </mxCell>
        <mxCell id="ElIWbwAEzOnZSnegK48y-16" value="" style="ellipse;whiteSpace=wrap;html=1;aspect=fixed;" vertex="1" parent="1">
          <mxGeometry x="-805" y="490" width="10" height="10" as="geometry" />
        </mxCell>
        <mxCell id="ElIWbwAEzOnZSnegK48y-17" value="surname" style="text;html=1;align=center;verticalAlign=middle;resizable=0;points=[];autosize=1;strokeColor=none;fillColor=none;" vertex="1" parent="1">
          <mxGeometry x="-875" y="478" width="70" height="30" as="geometry" />
        </mxCell>
        <mxCell id="ElIWbwAEzOnZSnegK48y-18" value="" style="endArrow=none;html=1;rounded=0;exitX=1;exitY=0.5;exitDx=0;exitDy=0;" edge="1" parent="1" source="ElIWbwAEzOnZSnegK48y-16">
          <mxGeometry width="50" height="50" relative="1" as="geometry">
            <mxPoint x="-760" y="350" as="sourcePoint" />
            <mxPoint x="-770" y="460" as="targetPoint" />
            <Array as="points">
              <mxPoint x="-770" y="495" />
            </Array>
          </mxGeometry>
        </mxCell>
        <mxCell id="ElIWbwAEzOnZSnegK48y-19" value="" style="ellipse;whiteSpace=wrap;html=1;aspect=fixed;" vertex="1" parent="1">
          <mxGeometry x="-805" y="520" width="10" height="10" as="geometry" />
        </mxCell>
        <mxCell id="ElIWbwAEzOnZSnegK48y-20" value="age" style="text;html=1;align=center;verticalAlign=middle;resizable=0;points=[];autosize=1;strokeColor=none;fillColor=none;" vertex="1" parent="1">
          <mxGeometry x="-860" y="508" width="40" height="30" as="geometry" />
        </mxCell>
        <mxCell id="ElIWbwAEzOnZSnegK48y-21" value="" style="endArrow=none;html=1;rounded=0;exitX=1;exitY=0.5;exitDx=0;exitDy=0;" edge="1" parent="1" source="ElIWbwAEzOnZSnegK48y-19">
          <mxGeometry width="50" height="50" relative="1" as="geometry">
            <mxPoint x="-760" y="390" as="sourcePoint" />
            <mxPoint x="-770" y="490" as="targetPoint" />
            <Array as="points">
              <mxPoint x="-770" y="525" />
            </Array>
          </mxGeometry>
        </mxCell>
        <mxCell id="ElIWbwAEzOnZSnegK48y-22" value="" style="ellipse;whiteSpace=wrap;html=1;aspect=fixed;" vertex="1" parent="1">
          <mxGeometry x="-805" y="550" width="10" height="10" as="geometry" />
        </mxCell>
        <mxCell id="ElIWbwAEzOnZSnegK48y-23" value="username" style="text;html=1;align=center;verticalAlign=middle;resizable=0;points=[];autosize=1;strokeColor=none;fillColor=none;" vertex="1" parent="1">
          <mxGeometry x="-880" y="538" width="80" height="30" as="geometry" />
        </mxCell>
        <mxCell id="ElIWbwAEzOnZSnegK48y-24" value="" style="endArrow=none;html=1;rounded=0;exitX=1;exitY=0.5;exitDx=0;exitDy=0;" edge="1" parent="1" source="ElIWbwAEzOnZSnegK48y-22">
          <mxGeometry width="50" height="50" relative="1" as="geometry">
            <mxPoint x="-760" y="390" as="sourcePoint" />
            <mxPoint x="-770" y="520" as="targetPoint" />
            <Array as="points">
              <mxPoint x="-770" y="555" />
            </Array>
          </mxGeometry>
        </mxCell>
        <mxCell id="ElIWbwAEzOnZSnegK48y-25" value="" style="ellipse;whiteSpace=wrap;html=1;aspect=fixed;" vertex="1" parent="1">
          <mxGeometry x="-805" y="580" width="10" height="10" as="geometry" />
        </mxCell>
        <mxCell id="ElIWbwAEzOnZSnegK48y-26" value="role" style="text;html=1;align=center;verticalAlign=middle;resizable=0;points=[];autosize=1;strokeColor=none;fillColor=none;" vertex="1" parent="1">
          <mxGeometry x="-860" y="568" width="40" height="30" as="geometry" />
        </mxCell>
        <mxCell id="ElIWbwAEzOnZSnegK48y-27" value="" style="endArrow=none;html=1;rounded=0;exitX=1;exitY=0.5;exitDx=0;exitDy=0;" edge="1" parent="1" source="ElIWbwAEzOnZSnegK48y-25">
          <mxGeometry width="50" height="50" relative="1" as="geometry">
            <mxPoint x="-760" y="450" as="sourcePoint" />
            <mxPoint x="-770" y="550" as="targetPoint" />
            <Array as="points">
              <mxPoint x="-770" y="585" />
            </Array>
          </mxGeometry>
        </mxCell>
        <mxCell id="ElIWbwAEzOnZSnegK48y-28" value="" style="ellipse;whiteSpace=wrap;html=1;aspect=fixed;" vertex="1" parent="1">
          <mxGeometry x="-805" y="610" width="10" height="10" as="geometry" />
        </mxCell>
        <mxCell id="ElIWbwAEzOnZSnegK48y-29" value="password" style="text;html=1;align=center;verticalAlign=middle;resizable=0;points=[];autosize=1;strokeColor=none;fillColor=none;" vertex="1" parent="1">
          <mxGeometry x="-875" y="600" width="70" height="30" as="geometry" />
        </mxCell>
        <mxCell id="ElIWbwAEzOnZSnegK48y-31" value="" style="endArrow=none;html=1;rounded=0;exitX=1;exitY=0.5;exitDx=0;exitDy=0;" edge="1" parent="1" source="ElIWbwAEzOnZSnegK48y-28">
          <mxGeometry width="50" height="50" relative="1" as="geometry">
            <mxPoint x="-760" y="450" as="sourcePoint" />
            <mxPoint x="-770" y="580" as="targetPoint" />
            <Array as="points">
              <mxPoint x="-770" y="615" />
            </Array>
          </mxGeometry>
        </mxCell>
        <mxCell id="ElIWbwAEzOnZSnegK48y-32" value="" style="ellipse;whiteSpace=wrap;html=1;aspect=fixed;" vertex="1" parent="1">
          <mxGeometry x="-805" y="640" width="10" height="10" as="geometry" />
        </mxCell>
        <mxCell id="ElIWbwAEzOnZSnegK48y-33" value="CardNumber" style="text;html=1;align=center;verticalAlign=middle;resizable=0;points=[];autosize=1;strokeColor=none;fillColor=none;" vertex="1" parent="1">
          <mxGeometry x="-895" y="630" width="90" height="30" as="geometry" />
        </mxCell>
        <mxCell id="ElIWbwAEzOnZSnegK48y-34" value="" style="endArrow=none;html=1;rounded=0;exitX=1;exitY=0.5;exitDx=0;exitDy=0;" edge="1" parent="1" source="ElIWbwAEzOnZSnegK48y-32">
          <mxGeometry width="50" height="50" relative="1" as="geometry">
            <mxPoint x="-760" y="590" as="sourcePoint" />
            <mxPoint x="-770" y="610" as="targetPoint" />
            <Array as="points">
              <mxPoint x="-770" y="645" />
            </Array>
          </mxGeometry>
        </mxCell>
        <mxCell id="ElIWbwAEzOnZSnegK48y-36" value="" style="endArrow=none;html=1;rounded=0;entryX=1;entryY=0.75;entryDx=0;entryDy=0;" edge="1" parent="1" source="ElIWbwAEzOnZSnegK48y-35" target="Bmd9y-NQcxC6Sm9OuTp9-4">
          <mxGeometry width="50" height="50" relative="1" as="geometry">
            <mxPoint x="-200" y="600" as="sourcePoint" />
            <mxPoint x="-460" y="540" as="targetPoint" />
            <Array as="points">
              <mxPoint x="-240" y="600" />
              <mxPoint x="-240" y="555" />
            </Array>
          </mxGeometry>
        </mxCell>
        <mxCell id="ElIWbwAEzOnZSnegK48y-37" value="CardNumber" style="text;html=1;align=center;verticalAlign=middle;resizable=0;points=[];autosize=1;strokeColor=none;fillColor=none;" vertex="1" parent="1">
          <mxGeometry x="-190" y="585" width="90" height="30" as="geometry" />
        </mxCell>
        <mxCell id="ElIWbwAEzOnZSnegK48y-39" value="cardexpirationdate" style="text;html=1;align=center;verticalAlign=middle;resizable=0;points=[];autosize=1;strokeColor=none;fillColor=none;" vertex="1" parent="1">
          <mxGeometry x="-190" y="620" width="120" height="30" as="geometry" />
        </mxCell>
        <mxCell id="ElIWbwAEzOnZSnegK48y-41" value="" style="endArrow=none;html=1;rounded=0;entryDx=0;entryDy=0;" edge="1" parent="1" target="ElIWbwAEzOnZSnegK48y-35">
          <mxGeometry width="50" height="50" relative="1" as="geometry">
            <mxPoint x="-200" y="600" as="sourcePoint" />
            <mxPoint x="-340" y="555" as="targetPoint" />
            <Array as="points" />
          </mxGeometry>
        </mxCell>
        <mxCell id="ElIWbwAEzOnZSnegK48y-35" value="" style="shape=waypoint;sketch=0;size=6;pointerEvents=1;points=[];fillColor=none;resizable=0;rotatable=0;perimeter=centerPerimeter;snapToPoint=1;" vertex="1" parent="1">
          <mxGeometry x="-210" y="590" width="20" height="20" as="geometry" />
        </mxCell>
        <mxCell id="ElIWbwAEzOnZSnegK48y-46" value="" style="ellipse;whiteSpace=wrap;html=1;aspect=fixed;" vertex="1" parent="1">
          <mxGeometry x="-200" y="630" width="10" height="10" as="geometry" />
        </mxCell>
        <mxCell id="ElIWbwAEzOnZSnegK48y-49" value="" style="endArrow=none;html=1;rounded=0;exitX=0;exitY=0.5;exitDx=0;exitDy=0;" edge="1" parent="1" source="ElIWbwAEzOnZSnegK48y-46">
          <mxGeometry width="50" height="50" relative="1" as="geometry">
            <mxPoint x="-510" y="590" as="sourcePoint" />
            <mxPoint x="-240" y="600" as="targetPoint" />
            <Array as="points">
              <mxPoint x="-240" y="635" />
            </Array>
          </mxGeometry>
        </mxCell>
        <mxCell id="ElIWbwAEzOnZSnegK48y-50" value="" style="ellipse;whiteSpace=wrap;html=1;aspect=fixed;" vertex="1" parent="1">
          <mxGeometry x="-200" y="660" width="10" height="10" as="geometry" />
        </mxCell>
        <mxCell id="ElIWbwAEzOnZSnegK48y-51" value="cardsecuritycode" style="text;html=1;align=center;verticalAlign=middle;resizable=0;points=[];autosize=1;strokeColor=none;fillColor=none;" vertex="1" parent="1">
          <mxGeometry x="-185" y="650" width="110" height="30" as="geometry" />
        </mxCell>
        <mxCell id="ElIWbwAEzOnZSnegK48y-52" value="" style="endArrow=none;html=1;rounded=0;entryX=0;entryY=0.5;entryDx=0;entryDy=0;" edge="1" parent="1" target="ElIWbwAEzOnZSnegK48y-50">
          <mxGeometry width="50" height="50" relative="1" as="geometry">
            <mxPoint x="-240" y="630" as="sourcePoint" />
            <mxPoint x="-210" y="660" as="targetPoint" />
            <Array as="points">
              <mxPoint x="-240" y="665" />
            </Array>
          </mxGeometry>
        </mxCell>
        <mxCell id="ElIWbwAEzOnZSnegK48y-53" value="(1,0)" style="text;html=1;align=center;verticalAlign=middle;resizable=0;points=[];autosize=1;strokeColor=none;fillColor=none;" vertex="1" parent="1">
          <mxGeometry x="-615" y="428" width="50" height="30" as="geometry" />
        </mxCell>
        <mxCell id="ElIWbwAEzOnZSnegK48y-54" value="(1,1)" style="text;html=1;align=center;verticalAlign=middle;resizable=0;points=[];autosize=1;strokeColor=none;fillColor=none;" vertex="1" parent="1">
          <mxGeometry x="-545" y="558" width="50" height="30" as="geometry" />
        </mxCell>
        <mxCell id="ElIWbwAEzOnZSnegK48y-55" value="(1,N)" style="text;html=1;align=center;verticalAlign=middle;resizable=0;points=[];autosize=1;strokeColor=none;fillColor=none;" vertex="1" parent="1">
          <mxGeometry x="-625" y="298" width="50" height="30" as="geometry" />
        </mxCell>
        <mxCell id="ElIWbwAEzOnZSnegK48y-56" value="(1,1)" style="text;html=1;align=center;verticalAlign=middle;resizable=0;points=[];autosize=1;strokeColor=none;fillColor=none;" vertex="1" parent="1">
          <mxGeometry x="-615" y="148" width="50" height="30" as="geometry" />
        </mxCell>
        <mxCell id="ElIWbwAEzOnZSnegK48y-57" value="(1, N)" style="text;html=1;align=center;verticalAlign=middle;resizable=0;points=[];autosize=1;strokeColor=none;fillColor=none;" vertex="1" parent="1">
          <mxGeometry x="-413" y="160" width="50" height="30" as="geometry" />
        </mxCell>
        <mxCell id="ElIWbwAEzOnZSnegK48y-58" value="(1,1)" style="text;html=1;align=center;verticalAlign=middle;resizable=0;points=[];autosize=1;strokeColor=none;fillColor=none;" vertex="1" parent="1">
          <mxGeometry x="-335" y="28" width="50" height="30" as="geometry" />
        </mxCell>
        <mxCell id="ElIWbwAEzOnZSnegK48y-60" value="(1,1)" style="text;html=1;align=center;verticalAlign=middle;resizable=0;points=[];autosize=1;strokeColor=none;fillColor=none;" vertex="1" parent="1">
          <mxGeometry x="-480" y="60" width="50" height="30" as="geometry" />
        </mxCell>
        <mxCell id="ElIWbwAEzOnZSnegK48y-61" value="(N, 1)" style="text;html=1;align=center;verticalAlign=middle;resizable=0;points=[];autosize=1;strokeColor=none;fillColor=none;" vertex="1" parent="1">
          <mxGeometry x="-810" y="290" width="50" height="30" as="geometry" />
        </mxCell>
        <mxCell id="ElIWbwAEzOnZSnegK48y-62" value="(1,1)" style="text;html=1;align=center;verticalAlign=middle;resizable=0;points=[];autosize=1;strokeColor=none;fillColor=none;" vertex="1" parent="1">
          <mxGeometry x="-815" y="148" width="50" height="30" as="geometry" />
        </mxCell>
        <mxCell id="ElIWbwAEzOnZSnegK48y-63" value="(1,N)" style="text;html=1;align=center;verticalAlign=middle;resizable=0;points=[];autosize=1;strokeColor=none;fillColor=none;" vertex="1" parent="1">
          <mxGeometry x="-605" y="28" width="50" height="30" as="geometry" />
        </mxCell>
        <mxCell id="ElIWbwAEzOnZSnegK48y-64" value="" style="shape=waypoint;sketch=0;size=6;pointerEvents=1;points=[];fillColor=none;resizable=0;rotatable=0;perimeter=centerPerimeter;snapToPoint=1;" vertex="1" parent="1">
          <mxGeometry x="-190" y="-10" width="20" height="20" as="geometry" />
        </mxCell>
        <mxCell id="ElIWbwAEzOnZSnegK48y-65" value="" style="endArrow=none;html=1;rounded=0;entryX=1;entryY=0.5;entryDx=0;entryDy=0;" edge="1" parent="1" source="ElIWbwAEzOnZSnegK48y-64" target="Bmd9y-NQcxC6Sm9OuTp9-11">
          <mxGeometry width="50" height="50" relative="1" as="geometry">
            <mxPoint x="-430" y="80" as="sourcePoint" />
            <mxPoint x="-380" y="30" as="targetPoint" />
            <Array as="points">
              <mxPoint x="-220" />
              <mxPoint x="-220" y="-20" />
            </Array>
          </mxGeometry>
        </mxCell>
        <mxCell id="ElIWbwAEzOnZSnegK48y-66" value="id" style="text;html=1;align=center;verticalAlign=middle;resizable=0;points=[];autosize=1;strokeColor=none;fillColor=none;" vertex="1" parent="1">
          <mxGeometry x="-170" y="-15" width="30" height="30" as="geometry" />
        </mxCell>
        <mxCell id="ElIWbwAEzOnZSnegK48y-67" value="" style="ellipse;whiteSpace=wrap;html=1;aspect=fixed;" vertex="1" parent="1">
          <mxGeometry x="-184" y="28" width="8" height="8" as="geometry" />
        </mxCell>
        <mxCell id="ElIWbwAEzOnZSnegK48y-68" value="" style="endArrow=none;html=1;rounded=0;exitX=0;exitY=0.5;exitDx=0;exitDy=0;" edge="1" parent="1" source="ElIWbwAEzOnZSnegK48y-67">
          <mxGeometry width="50" height="50" relative="1" as="geometry">
            <mxPoint x="-430" y="80" as="sourcePoint" />
            <mxPoint x="-220" as="targetPoint" />
            <Array as="points">
              <mxPoint x="-220" y="32" />
            </Array>
          </mxGeometry>
        </mxCell>
        <mxCell id="ElIWbwAEzOnZSnegK48y-69" value="hotel" style="text;html=1;align=center;verticalAlign=middle;resizable=0;points=[];autosize=1;strokeColor=none;fillColor=none;" vertex="1" parent="1">
          <mxGeometry x="-170" y="17" width="50" height="30" as="geometry" />
        </mxCell>
        <mxCell id="ElIWbwAEzOnZSnegK48y-73" value="" style="ellipse;whiteSpace=wrap;html=1;aspect=fixed;" vertex="1" parent="1">
          <mxGeometry x="-186" y="60" width="10" height="10" as="geometry" />
        </mxCell>
        <mxCell id="ElIWbwAEzOnZSnegK48y-74" value="price" style="text;html=1;align=center;verticalAlign=middle;resizable=0;points=[];autosize=1;strokeColor=none;fillColor=none;" vertex="1" parent="1">
          <mxGeometry x="-175" y="48" width="50" height="30" as="geometry" />
        </mxCell>
        <mxCell id="ElIWbwAEzOnZSnegK48y-75" value="" style="endArrow=none;html=1;rounded=0;exitX=0;exitY=0.5;exitDx=0;exitDy=0;" edge="1" parent="1" source="ElIWbwAEzOnZSnegK48y-73">
          <mxGeometry width="50" height="50" relative="1" as="geometry">
            <mxPoint x="-430" y="80" as="sourcePoint" />
            <mxPoint x="-220" y="30" as="targetPoint" />
            <Array as="points">
              <mxPoint x="-220" y="65" />
            </Array>
          </mxGeometry>
        </mxCell>
        <mxCell id="ElIWbwAEzOnZSnegK48y-76" value="" style="ellipse;whiteSpace=wrap;html=1;aspect=fixed;" vertex="1" parent="1">
          <mxGeometry x="-186" y="95" width="10" height="10" as="geometry" />
        </mxCell>
        <mxCell id="ElIWbwAEzOnZSnegK48y-77" value="bed" style="text;html=1;align=center;verticalAlign=middle;resizable=0;points=[];autosize=1;strokeColor=none;fillColor=none;" vertex="1" parent="1">
          <mxGeometry x="-170" y="88" width="40" height="30" as="geometry" />
        </mxCell>
        <mxCell id="ElIWbwAEzOnZSnegK48y-78" value="" style="endArrow=none;html=1;rounded=0;exitX=0;exitY=0.5;exitDx=0;exitDy=0;" edge="1" parent="1" source="ElIWbwAEzOnZSnegK48y-76">
          <mxGeometry width="50" height="50" relative="1" as="geometry">
            <mxPoint x="-430" y="80" as="sourcePoint" />
            <mxPoint x="-220" y="60" as="targetPoint" />
            <Array as="points">
              <mxPoint x="-220" y="100" />
            </Array>
          </mxGeometry>
        </mxCell>
        <mxCell id="ElIWbwAEzOnZSnegK48y-79" value="" style="shape=waypoint;sketch=0;size=6;pointerEvents=1;points=[];fillColor=none;resizable=0;rotatable=0;perimeter=centerPerimeter;snapToPoint=1;" vertex="1" parent="1">
          <mxGeometry x="-970" y="190" width="20" height="20" as="geometry" />
        </mxCell>
        <mxCell id="ElIWbwAEzOnZSnegK48y-81" value="users" style="text;html=1;align=center;verticalAlign=middle;resizable=0;points=[];autosize=1;strokeColor=none;fillColor=none;" vertex="1" parent="1">
          <mxGeometry x="-1020" y="185" width="50" height="30" as="geometry" />
        </mxCell>
        <mxCell id="ElIWbwAEzOnZSnegK48y-82" value="" style="endArrow=none;html=1;rounded=0;exitX=0;exitY=0.5;exitDx=0;exitDy=0;entryX=0.783;entryY=0.75;entryDx=0;entryDy=0;entryPerimeter=0;" edge="1" parent="1" source="Bmd9y-NQcxC6Sm9OuTp9-14" target="ElIWbwAEzOnZSnegK48y-79">
          <mxGeometry width="50" height="50" relative="1" as="geometry">
            <mxPoint x="-640" y="170" as="sourcePoint" />
            <mxPoint x="-590" y="120" as="targetPoint" />
            <Array as="points">
              <mxPoint x="-920" y="230" />
              <mxPoint x="-920" y="200" />
            </Array>
          </mxGeometry>
        </mxCell>
        <mxCell id="ElIWbwAEzOnZSnegK48y-83" value="" style="ellipse;whiteSpace=wrap;html=1;aspect=fixed;" vertex="1" parent="1">
          <mxGeometry x="-965" y="160" width="10" height="10" as="geometry" />
        </mxCell>
        <mxCell id="ElIWbwAEzOnZSnegK48y-84" value="" style="ellipse;whiteSpace=wrap;html=1;aspect=fixed;" vertex="1" parent="1">
          <mxGeometry x="-965" y="130" width="10" height="10" as="geometry" />
        </mxCell>
        <mxCell id="ElIWbwAEzOnZSnegK48y-85" value="" style="ellipse;whiteSpace=wrap;html=1;aspect=fixed;" vertex="1" parent="1">
          <mxGeometry x="-965" y="98" width="10" height="10" as="geometry" />
        </mxCell>
        <mxCell id="ElIWbwAEzOnZSnegK48y-86" value="hotel" style="text;html=1;align=center;verticalAlign=middle;resizable=0;points=[];autosize=1;strokeColor=none;fillColor=none;" vertex="1" parent="1">
          <mxGeometry x="-1025" y="148" width="50" height="30" as="geometry" />
        </mxCell>
        <mxCell id="ElIWbwAEzOnZSnegK48y-87" value="Text" style="text;html=1;align=center;verticalAlign=middle;resizable=0;points=[];autosize=1;strokeColor=none;fillColor=none;" vertex="1" parent="1">
          <mxGeometry x="-1025" y="118" width="50" height="30" as="geometry" />
        </mxCell>
        <mxCell id="ElIWbwAEzOnZSnegK48y-88" value="score" style="text;html=1;align=center;verticalAlign=middle;resizable=0;points=[];autosize=1;strokeColor=none;fillColor=none;" vertex="1" parent="1">
          <mxGeometry x="-1025" y="90" width="50" height="30" as="geometry" />
        </mxCell>
        <mxCell id="ElIWbwAEzOnZSnegK48y-89" value="" style="endArrow=none;html=1;rounded=0;entryX=1;entryY=0.5;entryDx=0;entryDy=0;" edge="1" parent="1" target="ElIWbwAEzOnZSnegK48y-85">
          <mxGeometry width="50" height="50" relative="1" as="geometry">
            <mxPoint x="-920" y="200" as="sourcePoint" />
            <mxPoint x="-950" y="100" as="targetPoint" />
            <Array as="points">
              <mxPoint x="-920" y="150" />
              <mxPoint x="-920" y="103" />
            </Array>
          </mxGeometry>
        </mxCell>
        <mxCell id="ElIWbwAEzOnZSnegK48y-90" value="" style="endArrow=none;html=1;rounded=0;exitX=1;exitY=0.5;exitDx=0;exitDy=0;" edge="1" parent="1" source="ElIWbwAEzOnZSnegK48y-83">
          <mxGeometry width="50" height="50" relative="1" as="geometry">
            <mxPoint x="-920" y="170" as="sourcePoint" />
            <mxPoint x="-920" y="165" as="targetPoint" />
          </mxGeometry>
        </mxCell>
        <mxCell id="ElIWbwAEzOnZSnegK48y-91" value="" style="endArrow=none;html=1;rounded=0;exitX=1;exitY=0.5;exitDx=0;exitDy=0;" edge="1" parent="1" source="ElIWbwAEzOnZSnegK48y-84">
          <mxGeometry width="50" height="50" relative="1" as="geometry">
            <mxPoint x="-920" y="170" as="sourcePoint" />
            <mxPoint x="-920" y="135" as="targetPoint" />
          </mxGeometry>
        </mxCell>
        <mxCell id="ElIWbwAEzOnZSnegK48y-92" value="" style="shape=waypoint;sketch=0;size=6;pointerEvents=1;points=[];fillColor=none;resizable=0;rotatable=0;perimeter=centerPerimeter;snapToPoint=1;" vertex="1" parent="1">
          <mxGeometry x="-230" y="150" width="20" height="20" as="geometry" />
        </mxCell>
        <mxCell id="ElIWbwAEzOnZSnegK48y-93" value="" style="ellipse;whiteSpace=wrap;html=1;" vertex="1" parent="1">
          <mxGeometry x="-225" y="195" width="10" height="10" as="geometry" />
        </mxCell>
        <mxCell id="ElIWbwAEzOnZSnegK48y-94" value="" style="ellipse;whiteSpace=wrap;html=1;" vertex="1" parent="1">
          <mxGeometry x="-225" y="230" width="10" height="10" as="geometry" />
        </mxCell>
        <mxCell id="ElIWbwAEzOnZSnegK48y-95" value="" style="ellipse;whiteSpace=wrap;html=1;" vertex="1" parent="1">
          <mxGeometry x="-225" y="270" width="10" height="10" as="geometry" />
        </mxCell>
        <mxCell id="ElIWbwAEzOnZSnegK48y-96" value="bkid" style="text;html=1;align=center;verticalAlign=middle;resizable=0;points=[];autosize=1;strokeColor=none;fillColor=none;" vertex="1" parent="1">
          <mxGeometry x="-206" y="145" width="50" height="30" as="geometry" />
        </mxCell>
        <mxCell id="ElIWbwAEzOnZSnegK48y-98" value="users" style="text;html=1;align=center;verticalAlign=middle;resizable=0;points=[];autosize=1;strokeColor=none;fillColor=none;" vertex="1" parent="1">
          <mxGeometry x="-205" y="188" width="50" height="30" as="geometry" />
        </mxCell>
        <mxCell id="ElIWbwAEzOnZSnegK48y-99" value="hotel" style="text;html=1;align=center;verticalAlign=middle;resizable=0;points=[];autosize=1;strokeColor=none;fillColor=none;" vertex="1" parent="1">
          <mxGeometry x="-205" y="218" width="50" height="30" as="geometry" />
        </mxCell>
        <mxCell id="ElIWbwAEzOnZSnegK48y-100" value="period" style="text;html=1;align=center;verticalAlign=middle;resizable=0;points=[];autosize=1;strokeColor=none;fillColor=none;" vertex="1" parent="1">
          <mxGeometry x="-210" y="260" width="60" height="30" as="geometry" />
        </mxCell>
        <mxCell id="ElIWbwAEzOnZSnegK48y-101" value="" style="endArrow=none;html=1;rounded=0;entryX=1;entryY=0.5;entryDx=0;entryDy=0;exitX=0;exitY=0.5;exitDx=0;exitDy=0;" edge="1" parent="1" source="ElIWbwAEzOnZSnegK48y-95" target="Bmd9y-NQcxC6Sm9OuTp9-20">
          <mxGeometry width="50" height="50" relative="1" as="geometry">
            <mxPoint x="-740" y="240" as="sourcePoint" />
            <mxPoint x="-690" y="190" as="targetPoint" />
            <Array as="points">
              <mxPoint x="-278" y="275" />
            </Array>
          </mxGeometry>
        </mxCell>
        <mxCell id="ElIWbwAEzOnZSnegK48y-103" value="" style="endArrow=none;html=1;rounded=0;exitX=0;exitY=0.5;exitDx=0;exitDy=0;exitPerimeter=0;" edge="1" parent="1" source="ElIWbwAEzOnZSnegK48y-92">
          <mxGeometry width="50" height="50" relative="1" as="geometry">
            <mxPoint x="-470" y="200" as="sourcePoint" />
            <mxPoint x="-280" y="160" as="targetPoint" />
          </mxGeometry>
        </mxCell>
        <mxCell id="ElIWbwAEzOnZSnegK48y-105" value="" style="endArrow=none;html=1;rounded=0;entryX=0;entryY=0.5;entryDx=0;entryDy=0;" edge="1" parent="1" target="ElIWbwAEzOnZSnegK48y-93">
          <mxGeometry width="50" height="50" relative="1" as="geometry">
            <mxPoint x="-280" y="200" as="sourcePoint" />
            <mxPoint x="-420" y="150" as="targetPoint" />
          </mxGeometry>
        </mxCell>
        <mxCell id="ElIWbwAEzOnZSnegK48y-106" value="" style="endArrow=none;html=1;rounded=0;exitX=0;exitY=0.5;exitDx=0;exitDy=0;" edge="1" parent="1" source="ElIWbwAEzOnZSnegK48y-94">
          <mxGeometry width="50" height="50" relative="1" as="geometry">
            <mxPoint x="-470" y="200" as="sourcePoint" />
            <mxPoint x="-280" y="235" as="targetPoint" />
          </mxGeometry>
        </mxCell>
        <mxCell id="ElIWbwAEzOnZSnegK48y-107" value="" style="shape=waypoint;sketch=0;size=6;pointerEvents=1;points=[];fillColor=none;resizable=0;rotatable=0;perimeter=centerPerimeter;snapToPoint=1;" vertex="1" parent="1">
          <mxGeometry x="-800" y="58" width="20" height="20" as="geometry" />
        </mxCell>
        <mxCell id="ElIWbwAEzOnZSnegK48y-108" value="" style="ellipse;whiteSpace=wrap;html=1;" vertex="1" parent="1">
          <mxGeometry x="-795" y="36" width="10" height="10" as="geometry" />
        </mxCell>
        <mxCell id="ElIWbwAEzOnZSnegK48y-110" value="" style="ellipse;whiteSpace=wrap;html=1;" vertex="1" parent="1">
          <mxGeometry x="-795" y="5" width="10" height="10" as="geometry" />
        </mxCell>
        <mxCell id="ElIWbwAEzOnZSnegK48y-111" value="" style="ellipse;whiteSpace=wrap;html=1;" vertex="1" parent="1">
          <mxGeometry x="-795" y="-30" width="10" height="10" as="geometry" />
        </mxCell>
        <mxCell id="ElIWbwAEzOnZSnegK48y-112" value="" style="ellipse;whiteSpace=wrap;html=1;" vertex="1" parent="1">
          <mxGeometry x="-795" y="-60" width="10" height="10" as="geometry" />
        </mxCell>
        <mxCell id="ElIWbwAEzOnZSnegK48y-113" value="name" style="text;html=1;align=center;verticalAlign=middle;resizable=0;points=[];autosize=1;strokeColor=none;fillColor=none;" vertex="1" parent="1">
          <mxGeometry x="-850" y="53" width="50" height="30" as="geometry" />
        </mxCell>
        <mxCell id="ElIWbwAEzOnZSnegK48y-114" value="place" style="text;html=1;align=center;verticalAlign=middle;resizable=0;points=[];autosize=1;strokeColor=none;fillColor=none;" vertex="1" parent="1">
          <mxGeometry x="-855" y="28" width="50" height="30" as="geometry" />
        </mxCell>
        <mxCell id="ElIWbwAEzOnZSnegK48y-115" value="manager" style="text;html=1;align=center;verticalAlign=middle;resizable=0;points=[];autosize=1;strokeColor=none;fillColor=none;" vertex="1" parent="1">
          <mxGeometry x="-865" y="-2" width="70" height="30" as="geometry" />
        </mxCell>
        <mxCell id="ElIWbwAEzOnZSnegK48y-116" value="type" style="text;html=1;align=center;verticalAlign=middle;resizable=0;points=[];autosize=1;strokeColor=none;fillColor=none;" vertex="1" parent="1">
          <mxGeometry x="-855" y="-42" width="50" height="30" as="geometry" />
        </mxCell>
        <mxCell id="ElIWbwAEzOnZSnegK48y-117" value="room" style="text;html=1;align=center;verticalAlign=middle;resizable=0;points=[];autosize=1;strokeColor=none;fillColor=none;" vertex="1" parent="1">
          <mxGeometry x="-860" y="-72" width="50" height="30" as="geometry" />
        </mxCell>
        <mxCell id="ElIWbwAEzOnZSnegK48y-118" value="" style="endArrow=none;html=1;rounded=0;exitX=0;exitY=0.25;exitDx=0;exitDy=0;entryX=1;entryY=0.5;entryDx=0;entryDy=0;" edge="1" parent="1" source="Bmd9y-NQcxC6Sm9OuTp9-7" target="ElIWbwAEzOnZSnegK48y-112">
          <mxGeometry width="50" height="50" relative="1" as="geometry">
            <mxPoint x="-660" y="30" as="sourcePoint" />
            <mxPoint x="-610" y="-20" as="targetPoint" />
            <Array as="points">
              <mxPoint x="-720" y="85" />
              <mxPoint x="-720" y="70" />
              <mxPoint x="-720" y="-55" />
            </Array>
          </mxGeometry>
        </mxCell>
        <mxCell id="ElIWbwAEzOnZSnegK48y-119" value="" style="endArrow=none;html=1;rounded=0;entryX=1;entryY=0.5;entryDx=0;entryDy=0;" edge="1" parent="1" target="ElIWbwAEzOnZSnegK48y-111">
          <mxGeometry width="50" height="50" relative="1" as="geometry">
            <mxPoint x="-720" y="-25" as="sourcePoint" />
            <mxPoint x="-610" y="-20" as="targetPoint" />
          </mxGeometry>
        </mxCell>
        <mxCell id="ElIWbwAEzOnZSnegK48y-120" value="" style="endArrow=none;html=1;rounded=0;" edge="1" parent="1" target="ElIWbwAEzOnZSnegK48y-107">
          <mxGeometry width="50" height="50" relative="1" as="geometry">
            <mxPoint x="-720" y="68" as="sourcePoint" />
            <mxPoint x="-610" y="-20" as="targetPoint" />
          </mxGeometry>
        </mxCell>
        <mxCell id="ElIWbwAEzOnZSnegK48y-121" value="" style="endArrow=none;html=1;rounded=0;entryX=1;entryY=0.5;entryDx=0;entryDy=0;" edge="1" parent="1" target="ElIWbwAEzOnZSnegK48y-110">
          <mxGeometry width="50" height="50" relative="1" as="geometry">
            <mxPoint x="-720" y="10" as="sourcePoint" />
            <mxPoint x="-610" y="-20" as="targetPoint" />
          </mxGeometry>
        </mxCell>
        <mxCell id="ElIWbwAEzOnZSnegK48y-122" value="" style="endArrow=none;html=1;rounded=0;entryX=1;entryY=0.5;entryDx=0;entryDy=0;" edge="1" parent="1" target="ElIWbwAEzOnZSnegK48y-108">
          <mxGeometry width="50" height="50" relative="1" as="geometry">
            <mxPoint x="-720" y="40" as="sourcePoint" />
            <mxPoint x="-610" y="-20" as="targetPoint" />
          </mxGeometry>
        </mxCell>
      </root>
    </mxGraphModel>
  </diagram>
</mxfile>
